<svg width="70" height="70" viewBox="0 0 70 70" fill="#fff" xmlns="http://www.w3.org/2000/svg">
<path d="M35.1058 69.6681C54.3024 69.6681 69.8644 54.1061 69.8644 34.9095C69.8644 15.7128 54.3024 0.150879 35.1058 0.150879C15.9091 0.150879 0.347145 15.7128 0.347145 34.9095C0.347145 54.1061 15.9091 69.6681 35.1058 69.6681Z" fill="url(#paint0_linear)"/>
<path d="M2.14257 46.4956C2.64041 46.9935 4.91843 49.5581 10.9529 48.7585C14.2417 48.321 17.274 45.9223 17.3344 45.8771L37.565 28.9051C37.6857 28.7995 37.9874 28.709 37.9874 28.709C38.4249 28.709 38.6361 28.709 38.6361 28.9202V29.0861V45.7111V46.6314L59.802 28.89L59.9831 28.8297C60.2546 28.8297 60.5111 28.9805 60.6318 29.2068V29.3275V38.9676V39.7823V44.8814C60.6318 45.3189 60.9788 45.6659 61.4163 45.6659H68.19L69.6986 39.7823H67.149C66.802 39.7823 66.5305 39.5107 66.5305 39.1637V24.7111C66.5305 24.5603 66.5154 24.3943 66.4852 24.2435C66.4702 24.1982 66.4702 24.168 66.4551 24.1228C65.6404 22.1465 63.6943 20.7585 61.4163 20.7585C61.2201 20.7585 60.6318 20.9094 60.1943 21.0603C59.9529 21.1508 59.7417 21.2715 59.5456 21.4374L44.7158 33.8685L44.5348 34.0042V25.2391V25.1185C44.037 22.6292 41.8344 20.7585 39.1943 20.7585C39.0133 20.7585 38.5305 20.8189 38.0025 21.0904C37.2783 21.4525 36.5542 22.0861 35.9357 22.5991L13.412 41.4719C7.01541 46.1486 2.44429 41.1249 0.69429 40.0387C0.709376 42.015 2.18782 45.334 2.14257 46.4956Z" fill="white" stroke="white" stroke-miterlimit="10"/>
<defs>
<linearGradient id="paint0_linear" x1="14.1758" y1="7.14996" x2="56.0238" y2="62.684" gradientUnits="userSpaceOnUse">
<stop stop-color="#CD57AF"/>
<stop offset="1" stop-color="#4A2AB1"/>
</linearGradient>
</defs>
</svg>
