<svg width="70" height="70" fill="#fff" xmlns="http://www.w3.org/2000/svg"><path d="M35.106 69.668c19.196 0 34.758-15.562 34.758-34.759C69.864 15.713 54.302.151 35.106.151 15.909.15.347 15.713.347 34.909c0 19.197 15.562 34.76 34.759 34.76z" fill="url(#paint0_linear)"/><path d="M2.143 46.496c.497.497 2.775 3.062 8.81 2.262 3.289-.437 6.321-2.836 6.381-2.88l20.231-16.973c.12-.106.422-.196.422-.196.438 0 .65 0 .65.211v17.711L59.801 28.89l.181-.06a.74.74 0 01.649.377v15.675a.78.78 0 00.784.784h6.774l1.509-5.884h-2.55a.612.612 0 01-.618-.618V24.71c0-.15-.016-.317-.046-.467-.015-.046-.015-.076-.03-.121a5.441 5.441 0 00-5.039-3.364c-.196 0-.784.15-1.222.301a2.15 2.15 0 00-.648.377l-14.83 12.431-.181.136V25.12a5.441 5.441 0 00-5.34-4.36c-.182 0-.664.06-1.193.331-.724.363-1.448.996-2.066 1.51l-22.523 18.87C7.015 46.149 2.444 41.125.694 40.039c.015 1.976 1.494 5.295 1.449 6.457z" stroke="#fff" stroke-miterlimit="10"/><defs><linearGradient id="paint0_linear" x1="14.176" y1="7.15" x2="56.024" y2="62.684" gradientUnits="userSpaceOnUse"><stop stop-color="#CD57AF"/><stop offset="1" stop-color="#4A2AB1"/></linearGradient></defs></svg>